<svg id="Layer_1" data-name="Layer 1" xmlns="http://www.w3.org/2000/svg" viewBox="0 0 312 85.2"><defs><style>.cls-1{fill:#fff;}</style></defs><path class="cls-1" d="M302.72,28.48c-6,0-11.77,4.05-11.77,12.45,0,8.72,6.41,12.48,11.65,12.48a12.07,12.07,0,0,0,9.24-4H312l-.12,2.6a15.1,15.1,0,0,1-9.36,3.16c-9.21,0-15.09-6.52-15.09-14.2,0-8.37,6.68-14.13,15.41-14.13a14.76,14.76,0,0,1,8.72,2.56l0,2.8h-.12a10.94,10.94,0,0,0-8.76-3.68m-26.13-1.12h3.08V54.57h-3.08Zm-22.29,0h14.93v1.52H257.39V39.37h10.52v1.52H257.39V54.57H254.3Zm-13.48,0h3.08V54.57h-3.08Zm-17.08,1.12c-6,0-11.77,4.05-11.77,12.45,0,8.72,6.41,12.48,11.65,12.48a12.07,12.07,0,0,0,9.24-4H233L232.9,52a15.1,15.1,0,0,1-9.36,3.16c-9.21,0-15.09-6.52-15.09-14.2,0-8.37,6.69-14.13,15.41-14.13a14.76,14.76,0,0,1,8.72,2.56l0,2.8h-.12a10.94,10.94,0,0,0-8.76-3.68M197.81,43.73,192.45,29l-5.52,14.73Zm.6,1.64H186.33l-3.44,9.2h-2l10.44-27.21h3.72l10.16,27.21h-3.44Zm-28.93-3.48c4.24,0,7.25-2.16,7.25-6.64,0-4.69-3-6.33-7.25-6.33h-4.16v13Zm-7.24-14.53h7.56c6.25,0,10.25,2.72,10.25,7.89s-4.6,8.2-10.25,8.2h-4.48V54.57h-3.08Zm-18.68,0v1.56H132.43V39.37h9.81v1.52h-9.81V53h11.69v1.56H129.35V27.36Zm-38,12.29h4.2c4.12,0,6.72-1.68,6.72-5.52s-2.6-5.21-6.72-5.21h-4.2Zm12.36,14.92-9.16-13.4h-3.2v13.4h-3.08V27.36h7.2c6.6,0,10.12,2.32,10.12,6.73,0,4.16-3.32,6.36-7.68,6.92l9.44,13.56ZM80,28.24c-5.24,0-11.36,3.64-11.36,12.73S74.78,53.69,80,53.69,91.42,50,91.42,41,85.26,28.24,80,28.24m0,26.89c-8.12,0-14.72-5.6-14.72-14.24S71.9,26.8,80,26.8s14.73,5.68,14.73,14.29-6.65,14-14.73,14M57.58,27.36V54.57H54.5V29.16L44.21,54.57H42.69L32.17,28.88V54.57H30.41V27.36h4.64l9.2,23,9.29-23ZM16.93,43.73,11.56,29,6,43.73Zm.6,1.64H5.44L2,54.57H0L10.44,27.36h3.72L24.33,54.57H20.89Z" transform="translate(0 -26.8)"/><path class="cls-1" d="M40.22,92.75v-16c0-8.27-3.27-14.57-8.9-18a18.7,18.7,0,0,1,6.79-1.16C48.87,57.67,55,66.56,55,75.6A17,17,0,0,1,40.22,92.75M22,92.88V76.08c-.13-5.84,1.46-12.71,7.11-16.17,4.39,3,6.31,8.54,6.19,15.6V92.88ZM60,75.6C60,64.29,51.05,56,38.24,56a24.25,24.25,0,0,0-9.15,1.68A22.14,22.14,0,0,0,20.31,56C8.11,56,0,64.09,0,76.8V112H4.9V75.51c0-10.71,4.71-18,15.41-18a17,17,0,0,1,6.61,1.19c-6.09,3.37-9.8,9.72-9.8,18.07V112H22v-17h13.3v17h4.9V95C51.33,94,60,86.56,60,75.6" transform="translate(0 -26.8)"/></svg>